<svg width="449" height="55" viewBox="0 0 449 55" fill="none" xmlns="http://www.w3.org/2000/svg">
<path d="M10.1984 29.9403L28.7001 36.4646V45.5531L0.75279 33.7055V26.0452L28.7001 14.1976V23.2862L10.1984 29.9403ZM63.7234 40.2623H46.6499L43.404 50H33.0496L50.6424 2.73958H59.666L77.3562 50H67.0018L63.7234 40.2623ZM49.2791 32.3747H61.0942L55.1542 14.6845L49.2791 32.3747ZM88.23 14.8793L88.5221 18.9367C91.0323 15.799 94.3972 14.2301 98.6169 14.2301C102.339 14.2301 105.109 15.3229 106.926 17.5085C108.744 19.694 109.675 22.9616 109.718 27.3111V50H100.337V27.5383C100.337 25.5475 99.9044 24.1085 99.0389 23.2213C98.1733 22.3124 96.7343 21.858 94.7218 21.858C92.0818 21.858 90.1018 22.9832 88.7818 25.2337V50H79.4011V14.8793H88.23ZM115.398 32.18C115.398 26.7052 116.621 22.3449 119.066 19.099C121.533 15.8531 124.898 14.2301 129.161 14.2301C132.58 14.2301 135.404 15.5068 137.633 18.0603V0.142859H147.046V50H138.574L138.12 46.2672C135.783 49.1885 132.775 50.6492 129.096 50.6492C124.963 50.6492 121.641 49.0262 119.131 45.7803C116.643 42.5128 115.398 37.9793 115.398 32.18ZM124.779 32.8616C124.779 36.1508 125.352 38.6718 126.499 40.4246C127.646 42.1774 129.312 43.0538 131.498 43.0538C134.398 43.0538 136.443 41.8311 137.633 39.3859V25.5259C136.464 23.0806 134.441 21.858 131.563 21.858C127.04 21.858 124.779 25.5259 124.779 32.8616ZM174.052 23.6757C172.775 23.5026 171.65 23.416 170.676 23.416C167.127 23.416 164.801 24.617 163.697 27.019V50H154.317V14.8793H163.178L163.438 19.0665C165.32 15.8422 167.928 14.2301 171.26 14.2301C172.299 14.2301 173.273 14.3708 174.182 14.6521L174.052 23.6757ZM194.112 50.6492C188.961 50.6492 184.763 49.0695 181.517 45.9102C178.293 42.7508 176.681 38.5419 176.681 33.2836V32.3747C176.681 28.8475 177.363 25.699 178.726 22.9291C180.089 20.1376 182.015 17.9954 184.504 16.5022C187.014 14.9875 189.87 14.2301 193.073 14.2301C197.877 14.2301 201.653 15.7449 204.401 18.7744C207.171 21.8039 208.556 26.0993 208.556 31.6606V35.4908H186.191C186.494 37.7846 187.403 39.6239 188.918 41.0088C190.454 42.3938 192.391 43.0862 194.728 43.0862C198.342 43.0862 201.166 41.777 203.2 39.1587L207.809 44.3197C206.403 46.3105 204.498 47.8685 202.096 48.9938C199.694 50.0974 197.033 50.6492 194.112 50.6492ZM193.04 21.8255C191.179 21.8255 189.665 22.4531 188.496 23.7081C187.349 24.9632 186.613 26.7593 186.289 29.0964H199.337V28.3498C199.294 26.2724 198.732 24.6711 197.65 23.5459C196.568 22.399 195.031 21.8255 193.04 21.8255ZM232.933 40.2947C232.933 39.1478 232.359 38.2498 231.212 37.6006C230.087 36.9298 228.269 36.3347 225.759 35.8154C217.406 34.0626 213.23 30.5137 213.23 25.1688C213.23 22.0527 214.517 19.456 217.093 17.3786C219.689 15.2796 223.076 14.2301 227.252 14.2301C231.71 14.2301 235.27 15.2796 237.931 17.3786C240.615 19.4776 241.956 22.2042 241.956 25.5583H232.576C232.576 24.2167 232.143 23.1131 231.277 22.2475C230.412 21.3603 229.059 20.9167 227.22 20.9167C225.64 20.9167 224.417 21.2737 223.552 21.9878C222.686 22.7019 222.254 23.6108 222.254 24.7144C222.254 25.7531 222.74 26.597 223.714 27.2462C224.71 27.8737 226.376 28.4255 228.713 28.9016C231.05 29.356 233.019 29.8754 234.62 30.4596C239.576 32.2773 242.054 35.4259 242.054 39.9052C242.054 43.1079 240.679 45.7046 237.931 47.6954C235.183 49.6646 231.634 50.6492 227.285 50.6492C224.342 50.6492 221.723 50.1298 219.43 49.0911C217.157 48.0308 215.372 46.5918 214.074 44.7741C212.775 42.9347 212.126 40.9547 212.126 38.8341H221.02C221.107 40.5003 221.723 41.777 222.87 42.6642C224.017 43.5515 225.554 43.9951 227.479 43.9951C229.276 43.9951 230.628 43.6597 231.537 42.9888C232.467 42.2964 232.933 41.3983 232.933 40.2947Z" fill="white"/>
<path d="M265.294 50V2.73958H279.836C283.991 2.73958 287.702 3.6809 290.969 5.56352C294.259 7.42451 296.823 10.0862 298.662 13.5485C300.502 16.9891 301.421 20.9058 301.421 25.2986V27.4734C301.421 31.8662 300.512 35.7721 298.695 39.1911C296.899 42.6102 294.356 45.261 291.067 47.1436C287.778 49.0262 284.066 49.9784 279.933 50H265.294ZM275.032 10.6271V42.1774H279.739C283.547 42.1774 286.458 40.9331 288.47 38.4446C290.483 35.956 291.51 32.3964 291.554 27.7655V25.2662C291.554 20.4622 290.558 16.8268 288.567 14.3599C286.577 11.8714 283.666 10.6271 279.836 10.6271H275.032ZM317.813 50H308.4V14.8793H317.813V50ZM307.848 5.79074C307.848 4.38418 308.313 3.22647 309.244 2.31762C310.196 1.40876 311.484 0.954335 313.106 0.954335C314.708 0.954335 315.985 1.40876 316.937 2.31762C317.889 3.22647 318.365 4.38418 318.365 5.79074C318.365 7.21894 317.878 8.38746 316.904 9.29632C315.952 10.2052 314.686 10.6596 313.106 10.6596C311.527 10.6596 310.25 10.2052 309.276 9.29632C308.324 8.38746 307.848 7.21894 307.848 5.79074ZM345.923 50C345.49 49.1561 345.176 48.1066 344.981 46.8515C342.709 49.3833 339.755 50.6492 336.12 50.6492C332.679 50.6492 329.823 49.6538 327.551 47.6629C325.3 45.6721 324.175 43.162 324.175 40.1324C324.175 36.4105 325.549 33.5541 328.297 31.5632C331.067 29.5724 335.06 28.5662 340.275 28.5446H344.592V26.5321C344.592 24.9091 344.17 23.6108 343.326 22.637C342.504 21.6632 341.194 21.1763 339.398 21.1763C337.819 21.1763 336.574 21.555 335.666 22.3124C334.778 23.0698 334.335 24.1085 334.335 25.4285H324.954C324.954 23.3944 325.582 21.5118 326.837 19.7806C328.092 18.0494 329.866 16.697 332.16 15.7232C334.454 14.7278 337.029 14.2301 339.885 14.2301C344.213 14.2301 347.643 15.3229 350.175 17.5085C352.728 19.6724 354.005 22.7236 354.005 26.6619V41.8852C354.027 45.2177 354.492 47.7387 355.401 49.4482V50H345.923ZM338.165 43.4757C339.55 43.4757 340.827 43.1728 341.995 42.5669C343.164 41.9393 344.029 41.1062 344.592 40.0675V34.0301H341.086C336.39 34.0301 333.891 35.6531 333.588 38.899L333.556 39.4508C333.556 40.6193 333.967 41.5823 334.789 42.3397C335.611 43.097 336.737 43.4757 338.165 43.4757ZM371.987 42.437H389.158V50H360.01V44.2872L376.532 22.4747H360.497V14.8793H388.639V20.4298L371.987 42.437ZM397.987 54.0574H391.008L408.406 2.73958H415.385L397.987 54.0574ZM439.048 29.8429L420.189 23.2537V14.2301L448.461 26.0777V33.7055L420.189 45.5856V36.5295L439.048 29.8429Z" fill="#C5CEE0"/>
</svg>
